# xmcd
# 
# Track frame offsets:
#     150
#     21732
#     41152
#     57935
#     72517
#     90815
#     106032
# 
# Disc length: 1622
# 
# Revision: 0
# Processed by: cddbd v1.5.2PL0 Copyright (c) Steve Scherf et al.
# Submitted via: BonkEnc v1.0.8
# 
DISCID=58065407
DTITLE=天童よしみ - 懐メロ名曲集
DYEAR=0
DGENRE=
TTITLE0=影を慕いて
TTITLE1=裏町人生
TTITLE2=旅姿三人男
TTITLE3=流転
TTITLE4=岸壁の母
TTITLE5=夜霧のブルース
TTITLE6=人生劇場
EXTD=
EXTT0=
EXTT1=
EXTT2=
EXTT3=
EXTT4=
EXTT5=
EXTT6=
PLAYORDER=
